<svg width="300" height="298" viewBox="0 0 300 298" fill="none" xmlns="http://www.w3.org/2000/svg">
<path d="M213.892 14.5266C213.979 15.2466 213.632 15.7333 212.852 15.9866C202.126 12.1466 190.709 9.4933 178.602 8.02663C173.902 7.4533 169.652 7.29996 165.852 7.56663C160.372 7.50663 154.942 7.9933 149.562 9.02663C131.002 12.02 113.746 19 97.7923 29.9666C79.6856 42.4066 65.1089 57.76 54.0623 76.0266C51.4689 79.66 49.7456 83.66 48.8923 88.0266C32.6189 114.627 28.0156 143.277 35.0823 173.977C36.4756 180.023 38.9256 185.6 42.4323 190.707C44.3389 193.473 46.7723 195.253 49.7323 196.047C52.3256 196.747 54.7956 196.36 57.1423 194.887C59.8423 193.193 61.7456 190.74 62.8523 187.527C64.8456 181.753 66.4423 175.337 67.6423 168.277C68.4889 168.803 68.8089 169.553 68.6023 170.527C67.7689 174.433 66.8523 180.003 65.8523 187.237C64.2923 193.643 60.5756 198.223 54.7023 200.977C45.4423 201.057 39.0123 197.053 35.4123 188.967C31.8589 180.973 29.5956 172.597 28.6223 163.837C28.0889 158.983 27.8223 153.6 27.8223 147.687C27.8223 142.873 28.0823 137.487 28.6023 131.527C29.5423 120.733 31.3223 111.15 33.9423 102.777C39.8689 83.8566 49.4023 67.0033 62.5423 52.2166C80.6023 31.8833 101.966 17.85 126.632 10.1166C131.012 8.73662 135.406 7.4033 139.812 6.11663C139.959 6.06996 140.152 6.06663 140.392 6.10663C140.706 6.1533 140.762 5.98996 140.562 5.61663C140.511 5.52115 140.425 5.44548 140.317 5.40055C140.209 5.35561 140.085 5.34373 139.962 5.36663C139.302 5.4933 138.912 5.39663 138.792 5.07663C138.72 4.88366 138.641 4.71131 138.565 4.58011C138.489 4.44892 138.418 4.3644 138.362 4.33663C137.662 3.97663 136.906 3.84663 136.092 3.94663C135.952 3.96129 135.813 3.93086 135.695 3.86019C135.577 3.78951 135.488 3.68264 135.442 3.55663L134.352 0.56663C144.072 -0.25337 154.406 -0.183371 165.352 0.776629C171.626 1.3233 177.596 2.26663 183.262 3.60663C189.302 5.03996 194.529 6.47663 198.942 7.91663C204.122 9.60329 209.106 11.8066 213.892 14.5266Z" fill="#03F9DF"/>
<path d="M134.353 0.566895L135.443 3.55689C135.489 3.68291 135.577 3.78977 135.695 3.86045C135.813 3.93113 135.953 3.96156 136.093 3.94689C136.906 3.84689 137.663 3.97689 138.363 4.33689C138.419 4.36467 138.489 4.44918 138.566 4.58038C138.642 4.71158 138.721 4.88392 138.793 5.07689C138.913 5.39689 139.303 5.49356 139.963 5.36689C140.085 5.344 140.21 5.35587 140.317 5.40081C140.425 5.44575 140.511 5.52142 140.563 5.61689C140.763 5.99023 140.706 6.15356 140.393 6.1069C140.153 6.0669 139.96 6.07023 139.813 6.11689C135.406 7.40356 131.013 8.73689 126.633 10.1169C101.966 17.8502 80.6029 31.8836 62.5429 52.2169C49.4029 67.0036 39.8695 83.8569 33.9429 102.777C31.3229 111.15 29.5429 120.734 28.6029 131.527C28.0829 137.487 27.8229 142.874 27.8229 147.687C27.8229 153.6 28.0895 158.984 28.6229 163.837C29.5962 172.597 31.8595 180.974 35.4129 188.967C39.0129 197.054 45.4429 201.057 54.7029 200.977C49.1562 205.19 42.9562 206.204 36.1029 204.017C30.7095 202.297 25.9895 199.617 21.9429 195.977C18.5295 192.904 15.3162 188.96 12.3029 184.147C9.54286 179.72 7.47619 175.014 6.10286 170.027C4.72952 165.027 2.90952 160.527 0.642858 156.527C0.0428578 151.274 -0.137143 146.44 0.102857 142.027C1.02952 124.814 4.87619 108.057 11.6429 91.7569C20.8895 69.4769 34.7595 50.6236 53.2529 35.1969C76.7595 15.5836 103.793 4.04023 134.353 0.566895Z" fill="#00D9CE"/>
<path d="M212.853 15.9869C215.966 17.5803 219.133 19.0503 222.353 20.3969C224.379 21.2503 226.173 22.3269 227.733 23.6269C231.606 26.8669 234.083 28.9803 235.163 29.9669C236.843 31.4869 238.643 32.5636 240.563 33.1969C240.854 33.2877 241.118 33.4884 241.313 33.7669C241.986 34.7403 243.229 35.9303 245.043 37.3369C251.843 42.6103 258.303 49.2136 264.423 57.1469C265.869 59.0136 267.926 62.2436 270.593 66.8369C273.213 71.3503 276.193 75.6203 279.533 79.6469C279.61 79.7424 279.726 79.8038 279.857 79.8203C279.989 79.8368 280.129 79.8072 280.253 79.7369C280.713 79.4836 281.233 79.4136 281.813 79.5269C291.366 97.6936 297.046 117.027 298.853 137.527C299.126 140.654 299.039 148.73 298.593 161.757C297.199 156.51 296.076 151.224 295.223 145.897C294.129 139.104 293.426 135.04 293.113 133.707C292.133 129.52 290.943 125.564 289.543 121.837C279.076 94.0236 261.699 71.4003 237.413 53.9669C220.279 41.6669 200.343 33.7003 177.603 30.0669C172.129 28.7269 167.879 28.2969 164.853 28.7769C161.939 29.2436 159.773 29.3403 158.353 29.0669C160.186 28.7736 161.263 27.8569 161.583 26.3169C161.956 24.4903 162.156 23.5369 162.183 23.4569C162.503 22.4903 162.736 21.5003 162.883 20.4869C163.036 19.4269 163.303 18.4603 163.683 17.5869C165.049 14.4069 165.773 11.0669 165.853 7.56693C169.653 7.30026 173.903 7.45359 178.603 8.02692C190.709 9.49359 202.126 12.1469 212.853 15.9869Z" fill="#009CBF"/>
<path d="M165.853 7.56695C165.773 11.067 165.049 14.4069 163.683 17.5869C163.303 18.4603 163.036 19.4269 162.883 20.4869C162.736 21.5003 162.503 22.4903 162.183 23.457C162.156 23.537 161.956 24.4903 161.583 26.3169C161.263 27.8569 160.186 28.7736 158.353 29.0669C154.853 28.8736 151.389 29.1036 147.963 29.757C146.836 29.9703 145.246 30.077 143.193 30.077C141.773 30.0703 140.076 30.2203 138.103 30.5269C127.243 32.2136 118.243 34.2003 111.103 36.4869C111.143 36.2869 111.133 36.1103 111.073 35.9569C111.031 35.8469 110.933 35.7618 110.797 35.719C110.661 35.6762 110.499 35.6791 110.343 35.7269C101.696 38.4203 93.406 41.9569 85.4727 46.3369C82.2527 48.1169 79.3993 50.3669 76.9127 53.0869C76.5193 53.5203 75.5827 54.3336 74.1027 55.527C73.0493 56.3803 72.6927 56.2103 73.0327 55.0169C73.106 54.7503 73.2493 54.4936 73.4627 54.247C75.856 51.487 78.366 48.8403 80.9927 46.3069C81.046 46.2603 82.9193 44.3769 86.6127 40.6569C88.806 38.4503 91.186 36.4503 93.7527 34.6569C105.866 26.2036 118.879 19.557 132.793 14.717C134.759 14.037 137.176 13.4369 140.043 12.9169C142.796 12.4169 145.233 11.8703 147.353 11.2769C148.446 10.9703 149.183 10.2203 149.563 9.02695C154.943 7.99362 160.373 7.50695 165.853 7.56695Z" fill="#4270B5"/>
<path d="M149.563 9.02686C149.183 10.2202 148.446 10.9702 147.353 11.2769C145.233 11.8702 142.796 12.4169 140.043 12.9169C137.176 13.4369 134.759 14.0369 132.793 14.7169C118.879 19.5569 105.866 26.2035 93.7526 34.6569C91.186 36.4502 88.806 38.4502 86.6126 40.6569C82.9193 44.3769 81.046 46.2602 80.9926 46.3069C78.366 48.8402 75.856 51.4869 73.4626 54.2469C73.2493 54.4935 73.106 54.7502 73.0326 55.0169C72.6926 56.2102 73.0493 56.3802 74.1026 55.5269C75.5826 54.3335 76.5193 53.5202 76.9126 53.0869C79.3993 50.3669 82.2526 48.1169 85.4726 46.3369C93.406 41.9569 101.696 38.4202 110.343 35.7269C110.499 35.679 110.661 35.6762 110.797 35.7189C110.933 35.7617 111.031 35.8468 111.073 35.9569C111.133 36.1102 111.143 36.2869 111.103 36.4869C90.336 43.5535 72.7726 55.5869 58.4126 72.5869C57.2126 74.0069 56.326 75.3135 55.7526 76.5069C55.5851 76.8419 55.3573 77.091 55.1126 77.2068C54.306 77.5802 53.956 77.1869 54.0626 76.0269C65.1093 57.7602 79.686 42.4069 97.7926 29.9669C113.746 19.0002 131.003 12.0202 149.563 9.02686Z" fill="#2E5896"/>
<path d="M213.893 14.5269C222.553 18.2735 230.653 22.9135 238.193 28.4469C241.826 31.1069 246.163 34.9569 251.203 39.9969C253.943 42.7435 256.686 45.4869 259.433 48.2269C262.846 51.6469 265.476 54.4869 267.323 56.7469C273.036 63.7469 277.866 71.3402 281.813 79.5269C281.233 79.4135 280.713 79.4835 280.253 79.7369C280.129 79.8072 279.989 79.8367 279.857 79.8202C279.726 79.8038 279.61 79.7423 279.533 79.6469C276.193 75.6202 273.213 71.3502 270.593 66.8369C267.926 62.2435 265.869 59.0135 264.423 57.1469C258.303 49.2135 251.843 42.6102 245.043 37.3369C243.229 35.9302 241.986 34.7402 241.313 33.7669C241.118 33.4883 240.854 33.2876 240.563 33.1969C238.643 32.5635 236.843 31.4869 235.163 29.9669C234.083 28.9802 231.606 26.8669 227.733 23.6269C226.173 22.3269 224.379 21.2502 222.353 20.3969C219.133 19.0502 215.966 17.5802 212.853 15.9869C213.633 15.7335 213.979 15.2469 213.893 14.5269Z" fill="#0BA6AF"/>
<path d="M177.603 30.0668C177.296 30.5068 177.139 30.9735 177.133 31.4668C177.127 31.6061 177.175 31.7445 177.268 31.8591C177.36 31.9737 177.493 32.0576 177.643 32.0968C179.869 32.6968 182.113 33.2268 184.373 33.6868C204.433 37.7735 222.623 45.9501 238.943 58.2168C264.543 77.4435 281.406 102.283 289.533 132.737C290.979 138.157 292.066 144.067 292.793 150.467C293.573 157.293 293.926 163.313 293.853 168.527C293.786 173.133 293.083 179.167 291.743 186.627C291.723 186.707 291.516 187.407 291.123 188.727C290.669 190.253 291.233 191.27 292.813 191.777C291.086 197.723 288.536 204.327 285.163 211.587C279.896 222.94 273.536 233.13 266.083 242.157C266.009 242.243 264.086 244.697 260.313 249.517C258.086 252.343 255.599 254.943 252.853 257.317L248.923 256.977C251.896 255.837 253.936 254.5 255.043 252.967C256.023 251.607 257.093 250.327 258.253 249.127C258.352 249.026 258.423 248.897 258.456 248.753C258.489 248.609 258.485 248.455 258.443 248.307C258.049 246.94 258.386 245.713 259.453 244.627C262.326 241.7 264.879 238.51 267.113 235.057C269.093 232.003 270.776 229.847 272.163 228.587C273.169 227.68 273.866 226.753 274.253 225.807C274.37 225.507 274.572 225.25 274.833 225.067C275.659 224.48 276.299 223.743 276.753 222.857C277.393 221.597 277.723 220.95 277.743 220.917C279.296 218.37 280.653 215.55 281.813 212.457C281.849 212.361 281.862 212.257 281.851 212.155C281.84 212.053 281.804 211.954 281.748 211.869C281.691 211.783 281.615 211.711 281.525 211.661C281.436 211.61 281.335 211.581 281.233 211.577C273.733 211.27 266.606 211.033 259.853 210.867C259.093 210.847 258.843 210.413 259.103 209.567C259.489 209.587 259.823 209.477 260.103 209.237L282.003 209.027C282.319 209.024 282.626 208.927 282.887 208.749C283.147 208.57 283.347 208.319 283.463 208.027C292.156 185.687 293.749 163 288.243 139.967C286.769 133.787 284.649 127.473 281.883 121.027C267.949 88.5801 244.626 64.3101 211.913 48.2168C210.999 47.7635 210.299 47.7835 209.813 48.2768C197.046 41.0501 183.523 36.1168 169.243 33.4768C162.556 32.2368 155.926 31.6468 149.353 31.7068C132.853 31.8535 116.983 35.3735 101.743 42.2668C97.4492 44.2135 93.2226 46.2935 89.0626 48.5068C85.5559 50.3668 82.3192 52.6068 79.3526 55.2268C78.8926 55.6268 78.3759 55.9568 77.8026 56.2168C76.8826 56.6235 76.3359 56.9135 76.1626 57.0868C71.0826 62.1735 65.9992 67.2568 60.9126 72.3368C59.0392 74.2101 57.6959 75.7135 56.8826 76.8468C54.2092 80.5668 51.5459 84.2935 48.8926 88.0268C49.7459 83.6601 51.4692 79.6601 54.0626 76.0268C53.9559 77.1868 54.3059 77.5801 55.1126 77.2068C55.3573 77.0909 55.585 76.8418 55.7526 76.5068C56.3259 75.3135 57.2126 74.0068 58.4126 72.5868C72.7726 55.5868 90.3359 43.5535 111.103 36.4868C118.243 34.2001 127.243 32.2135 138.103 30.5268C140.076 30.2201 141.773 30.0701 143.193 30.0768C145.246 30.0768 146.836 29.9701 147.963 29.7568C151.389 29.1035 154.853 28.8735 158.353 29.0668C159.773 29.3401 161.939 29.2435 164.853 28.7768C167.879 28.2968 172.129 28.7268 177.603 30.0668Z" fill="#018CAF"/>
<path d="M177.602 30.0669C200.342 33.7002 220.279 41.6669 237.412 53.9669C261.699 71.4002 279.076 94.0236 289.542 121.837C290.942 125.564 292.132 129.52 293.112 133.707C293.426 135.04 294.129 139.104 295.222 145.897C296.076 151.224 297.199 156.51 298.592 161.757C297.672 171.99 295.746 181.997 292.812 191.777C291.232 191.27 290.669 190.254 291.122 188.727C291.516 187.407 291.722 186.707 291.742 186.627C293.082 179.167 293.786 173.134 293.852 168.527C293.926 163.314 293.572 157.294 292.792 150.467C292.066 144.067 290.979 138.157 289.532 132.737C281.406 102.284 264.542 77.4436 238.942 58.2169C222.622 45.9502 204.432 37.7736 184.372 33.6869C182.112 33.2269 179.869 32.6969 177.642 32.0969C177.492 32.0577 177.36 31.9738 177.267 31.8592C177.174 31.7446 177.127 31.6062 177.132 31.4669C177.139 30.9736 177.296 30.5069 177.602 30.0669Z" fill="#0ADFDA"/>
<path d="M260.102 209.237C262.416 203.317 264.082 198.33 265.102 194.277C266.942 186.97 268.526 178.387 269.852 168.527C270.632 162.72 270.866 157.143 270.553 151.797C270.286 147.223 269.652 141.707 268.652 135.247C267.452 127.52 265.372 119.677 262.412 111.717C262.086 110.83 261.496 110.517 260.643 110.777C251.076 83.9034 234.132 63.0701 209.812 48.2767C210.299 47.7834 210.999 47.7634 211.912 48.2167C244.626 64.3101 267.949 88.5801 281.882 121.027C284.649 127.473 286.769 133.787 288.243 139.967C293.749 163 292.156 185.687 283.462 208.027C283.347 208.319 283.147 208.57 282.886 208.749C282.626 208.927 282.319 209.024 282.002 209.027L260.102 209.237Z" fill="#01CBCB"/>
<path d="M166.293 130.767C168.499 131.22 170.446 130.58 172.133 128.847C168.039 133.447 164.536 138.453 161.623 143.867C161.303 144.46 160.876 145.573 160.343 147.207C159.969 148.36 159.439 149.447 158.753 150.467C158.053 151.513 157.723 152.357 157.763 152.997C157.823 154.05 158.336 154.917 159.303 155.597C160.289 156.29 161.019 157.193 161.493 158.307C163.359 162.707 165.553 167.113 168.073 171.527C168.153 171.673 168.279 172.027 168.453 172.587C168.573 172.967 168.796 173.29 169.123 173.557C169.396 173.783 169.613 174.023 169.773 174.277C170.219 174.957 170.816 175.23 171.563 175.097C171.701 175.072 171.836 175.006 171.957 174.903C172.077 174.8 172.178 174.664 172.253 174.507C176.479 165.627 180.996 156.9 185.803 148.327C187.289 145.673 188.623 143.14 189.803 140.727C191.063 138.153 192.329 135.587 193.603 133.027C194.089 132.047 194.253 131.22 194.093 130.547C194.067 130.441 194.086 130.329 194.146 130.235C194.206 130.142 194.302 130.074 194.413 130.047L195.563 129.777L196.313 133.027C191.626 142.667 182.909 159.687 170.163 184.087C167.183 189.793 162.913 193.51 157.353 195.237C157.166 194.41 156.769 194.027 156.163 194.087C152.583 194.46 149.369 194.503 146.523 194.217C144.436 194.003 142.643 193.313 141.143 192.147C139.503 190.873 138.176 189.397 137.163 187.717C136.403 186.437 135.623 185.333 134.823 184.407C133.743 183.153 132.979 182.067 132.533 181.147C130.393 176.733 129.083 174.11 128.603 173.277C123.469 164.363 119.703 157.38 117.303 152.327C116.729 151.12 115.759 150.603 114.393 150.777C111.086 144.43 108.656 139.43 107.103 135.777C106.836 135.157 106.419 134.893 105.853 134.987C106.733 134.04 106.926 132.947 106.433 131.707C105.999 130.627 105.489 130.433 104.903 131.127C102.356 126.4 98.3392 124.45 92.8526 125.277C87.5726 126.07 83.0359 128.203 79.2426 131.677C77.4892 133.283 76.2926 135.237 75.6526 137.537C75.3192 138.73 74.7992 139.82 74.0926 140.807C73.8977 141.08 73.7928 141.394 73.7926 141.707C73.7792 146.14 73.2026 150.497 72.0626 154.777C71.9692 156.303 71.0792 156.953 69.3926 156.727C72.3659 141.467 76.1759 126.42 80.8226 111.587C82.8159 105.22 84.0626 101.537 84.5626 100.537C86.4426 96.8033 89.2426 93.9233 92.9626 91.8966C95.7559 90.37 98.6592 89.54 101.673 89.4067C105.019 89.26 108.059 89.9866 110.793 91.5866C112.726 92.72 114.676 94.3966 116.643 96.6166C117.943 98.0833 119.389 100.173 120.983 102.887C134.616 126.073 142.676 140.35 145.163 145.717C146.789 149.217 148.813 152.7 151.233 156.167C151.292 156.255 151.374 156.325 151.47 156.372C151.565 156.419 151.671 156.439 151.778 156.432C151.884 156.425 151.986 156.391 152.075 156.332C152.163 156.273 152.235 156.192 152.283 156.097C156.609 147.51 161.279 139.067 166.293 130.767Z" fill="#0192BD"/>
<path d="M232.853 149.487C231.946 149.26 231.216 148.823 230.663 148.177C230.532 148.027 230.392 147.903 230.254 147.815C230.115 147.727 229.982 147.676 229.863 147.667C229.49 147.64 229.213 147.773 229.033 148.067C228.935 148.224 228.826 148.36 228.713 148.465C228.599 148.57 228.483 148.642 228.373 148.677C224.86 149.757 221.916 150.853 219.543 151.967C215.283 153.953 211.053 155.203 206.853 155.717C206.572 155.749 206.246 155.694 205.913 155.557C205.253 155.27 204.626 155.26 204.033 155.527C203.91 155.582 203.813 155.687 203.759 155.823C203.706 155.959 203.7 156.116 203.743 156.267C205.523 162.627 207.406 168.953 209.393 175.247C210.013 177.22 210.513 179.403 210.893 181.797C211.44 185.303 211.99 187.483 212.543 188.337C213.29 189.51 213.663 190.623 213.663 191.677C213.663 191.961 213.774 192.233 213.972 192.437C214.17 192.641 214.439 192.759 214.723 192.767C225.083 193.047 235.27 192.867 245.283 192.227C245.496 193.533 244.853 194.217 243.353 194.277C233.266 194.683 223.196 194.683 213.143 194.277C212.946 194.268 212.757 194.198 212.604 194.076C212.451 193.953 212.342 193.785 212.293 193.597L196.313 133.027L195.563 129.777C193.996 127.043 191.51 125.543 188.103 125.277C182.19 124.817 176.866 126.007 172.133 128.847C170.446 130.58 168.5 131.22 166.293 130.767C171.413 121.8 176.496 112.867 181.543 103.967C183.743 100.08 185.873 97.1267 187.933 95.1067C190.94 92.16 194.38 90.36 198.253 89.7066C202.086 89.0533 205.743 89.53 209.223 91.1366C213.143 92.9433 216.106 95.99 218.113 100.277C218.986 102.143 219.723 104.063 220.323 106.037C224.69 120.463 228.866 134.947 232.853 149.487Z" fill="#01A2C1"/>
<path d="M260.642 110.777C261.496 110.517 262.086 110.83 262.412 111.717C265.372 119.677 267.452 127.52 268.652 135.247C269.652 141.707 270.286 147.224 270.552 151.797C270.866 157.144 270.632 162.72 269.852 168.527C268.526 178.387 266.942 186.97 265.102 194.277C264.082 198.33 262.416 203.317 260.102 209.237C259.822 209.477 259.489 209.587 259.102 209.567C258.076 209.534 257.782 209.937 258.222 210.777L256.522 210.957C258.509 206.084 260.259 201.137 261.772 196.117C264.252 187.85 265.686 182.807 266.072 180.987C267.372 174.847 267.466 168.614 266.352 162.287C265.959 158.654 265.876 155.984 266.102 154.277C266.169 153.77 266.552 153.14 267.252 152.387C267.485 152.135 267.619 151.83 267.632 151.527C267.746 149.134 267.336 146.247 266.402 142.867C266.182 142.054 266.082 141.227 266.102 140.387C266.162 137.974 266.029 135.61 265.702 133.297C264.616 125.657 262.929 118.15 260.642 110.777Z" fill="#0ADFDA"/>
<path d="M104.903 131.127C104.023 132.254 103.686 133.304 103.893 134.277C102.073 137.444 100.989 140.86 100.643 144.527C100.303 148.14 99.7158 151.707 98.8825 155.227C98.8492 155.354 98.6492 156.61 98.2825 158.997C97.7958 162.157 95.9625 163.197 92.7825 162.117C90.9425 161.49 89.9658 161.16 89.8525 161.127C88.1592 160.68 86.4658 160.22 84.7725 159.747C84.6992 159.727 83.5992 159.364 81.4725 158.657C79.6525 158.05 78.0092 157.82 76.5425 157.967C73.7558 158.234 72.2625 157.17 72.0625 154.777C73.2025 150.497 73.7792 146.14 73.7925 141.707C73.7927 141.395 73.8976 141.08 74.0925 140.807C74.7992 139.82 75.3192 138.73 75.6525 137.537C76.2925 135.237 77.4892 133.284 79.2425 131.677C83.0358 128.204 87.5725 126.07 92.8525 125.277C98.3392 124.45 102.356 126.4 104.903 131.127Z" fill="#5267B2"/>
<path d="M195.563 129.777L194.413 130.047C194.302 130.074 194.207 130.142 194.147 130.236C194.087 130.329 194.067 130.441 194.093 130.547C194.253 131.22 194.09 132.047 193.603 133.027C192.33 135.587 191.063 138.154 189.803 140.727C188.623 143.14 187.29 145.674 185.803 148.327C180.996 156.9 176.48 165.627 172.253 174.507C172.179 174.664 172.077 174.8 171.957 174.903C171.837 175.006 171.702 175.073 171.563 175.097C170.816 175.23 170.22 174.957 169.773 174.277C169.613 174.024 169.396 173.784 169.123 173.557C168.796 173.29 168.573 172.967 168.453 172.587C168.28 172.027 168.153 171.674 168.073 171.527C165.553 167.114 163.36 162.707 161.493 158.307C161.02 157.194 160.29 156.29 159.303 155.597C158.336 154.917 157.823 154.05 157.763 152.997C157.723 152.357 158.053 151.514 158.753 150.467C159.44 149.447 159.97 148.36 160.343 147.207C160.876 145.574 161.303 144.46 161.623 143.867C164.536 138.454 168.04 133.447 172.133 128.847C176.866 126.007 182.19 124.817 188.103 125.277C191.51 125.544 193.996 127.044 195.563 129.777Z" fill="#635AAF"/>
<path d="M105.853 134.987L105.353 135.067C104.52 135.233 104.033 134.97 103.893 134.277C103.686 133.303 104.023 132.254 104.903 131.127C105.49 130.434 106 130.627 106.433 131.707C106.926 132.947 106.733 134.04 105.853 134.987Z" fill="#0ADFDA"/>
<path d="M103.893 134.277C104.033 134.97 104.519 135.234 105.353 135.067C104.386 135.347 103.969 136 104.103 137.027C104.343 138.867 104.423 140.71 104.343 142.557C104.316 143.17 104.149 143.737 103.843 144.257C103.623 144.637 103.386 145.007 103.133 145.367C102.983 145.594 102.903 145.913 102.903 146.277V151.787C102.903 152.045 102.778 152.361 102.553 152.677C101.726 153.87 101.283 155.18 101.223 156.607C101.116 159.1 101.056 160.374 101.043 160.427C100.536 163.374 99.6392 167.907 98.3525 174.027C96.2259 184.154 93.2392 192.904 89.3925 200.277C89.5392 197.73 88.5859 195.814 86.5325 194.527C86.4095 194.452 86.3098 194.342 86.2445 194.209C86.1792 194.077 86.1508 193.927 86.1625 193.777C86.2959 191.97 85.4225 190.904 83.5425 190.577C80.4425 190.03 77.3925 189.294 74.3925 188.367C74.141 188.289 73.8147 188.314 73.4725 188.437L72.8325 188.657C72.7133 188.701 72.5694 188.714 72.4107 188.695C72.252 188.676 72.0821 188.626 71.9125 188.547C70.4192 187.84 68.8359 187.83 67.1625 188.517C66.5092 188.784 66.2725 188.574 66.4525 187.887C66.6192 187.274 66.4192 187.057 65.8525 187.237C66.8525 180.004 67.7692 174.434 68.6025 170.527C68.8092 169.554 68.4892 168.804 67.6425 168.277L69.3925 156.727C71.0792 156.954 71.9692 156.304 72.0625 154.777C72.2625 157.17 73.7559 158.234 76.5425 157.967C78.0092 157.82 79.6525 158.05 81.4725 158.657C83.5992 159.364 84.6992 159.727 84.7725 159.747C86.4659 160.22 88.1592 160.68 89.8525 161.127C89.9659 161.16 90.9425 161.49 92.7825 162.117C95.9625 163.197 97.7959 162.157 98.2825 158.997C98.6492 156.61 98.8492 155.354 98.8825 155.227C99.7159 151.707 100.303 148.14 100.643 144.527C100.989 140.86 102.073 137.444 103.893 134.277Z" fill="#0188BB"/>
<path d="M232.852 149.487L245.282 192.227C235.269 192.867 225.082 193.047 214.722 192.767C214.438 192.759 214.169 192.641 213.971 192.437C213.773 192.234 213.662 191.961 213.662 191.677C213.662 190.624 213.289 189.51 212.542 188.337C211.989 187.484 211.439 185.304 210.892 181.797C210.512 179.404 210.012 177.22 209.392 175.247C207.405 168.954 205.522 162.627 203.742 156.267C203.699 156.117 203.705 155.959 203.759 155.823C203.812 155.687 203.909 155.582 204.032 155.527C204.625 155.26 205.252 155.27 205.912 155.557C206.245 155.694 206.571 155.75 206.852 155.717C211.052 155.204 215.282 153.954 219.542 151.967C221.915 150.854 224.859 149.757 228.372 148.677C228.482 148.642 228.598 148.57 228.712 148.465C228.825 148.36 228.934 148.225 229.032 148.067C229.212 147.774 229.489 147.64 229.862 147.667C229.981 147.676 230.114 147.727 230.253 147.815C230.391 147.904 230.531 148.027 230.662 148.177C231.215 148.824 231.945 149.26 232.852 149.487Z" fill="#5267B2"/>
<path d="M114.393 150.777C115.759 150.603 116.729 151.12 117.303 152.327C119.703 157.38 123.469 164.363 128.603 173.277C129.083 174.11 130.393 176.733 132.533 181.147C132.979 182.067 133.743 183.153 134.823 184.407C135.623 185.333 136.403 186.437 137.163 187.717C138.176 189.397 139.503 190.873 141.143 192.147C142.643 193.313 144.436 194.003 146.523 194.217C149.369 194.503 152.583 194.46 156.163 194.087C156.769 194.027 157.166 194.41 157.353 195.237C152.133 196.783 147.133 196.63 142.353 194.777C138.639 193.337 135.713 190.76 133.573 187.047C131.639 183.687 129.806 180.277 128.073 176.817C126.166 173.023 124.356 169.6 122.643 166.547C119.736 161.373 116.986 156.117 114.393 150.777Z" fill="#0BA6AF"/>
<path d="M0.642305 156.527C2.90897 160.527 4.72897 165.027 6.1023 170.027C7.47564 175.014 9.5423 179.72 12.3023 184.147C15.3156 188.96 18.529 192.904 21.9423 195.977C25.989 199.617 30.709 202.297 36.1023 204.017C42.9556 206.204 49.1556 205.19 54.7023 200.977C60.5756 198.224 64.2923 193.644 65.8523 187.237C66.419 187.057 66.619 187.274 66.4523 187.887C66.2723 188.574 66.509 188.784 67.1623 188.517C68.8356 187.83 70.419 187.84 71.9123 188.547C72.0818 188.626 72.2517 188.676 72.4105 188.695C72.5692 188.714 72.7131 188.701 72.8323 188.657L73.4723 188.437C73.8145 188.314 74.1408 188.289 74.3923 188.367C77.3923 189.294 80.4423 190.03 83.5423 190.577C85.4223 190.904 86.2956 191.97 86.1623 193.777C86.1506 193.927 86.179 194.077 86.2443 194.209C86.3096 194.342 86.4093 194.452 86.5323 194.527C88.5856 195.814 89.539 197.73 89.3923 200.277C83.0523 211.384 73.7323 218.757 61.4323 222.397C56.699 223.804 51.9423 224.347 47.1623 224.027C42.6356 223.734 38.0856 222.57 33.5123 220.537C25.6456 217.03 19.3623 211.757 14.6623 204.717C5.24897 190.604 0.575638 174.54 0.642305 156.527Z" fill="#00AAC3"/>
<path d="M266.353 162.287C267.466 168.613 267.373 174.847 266.073 180.987C265.686 182.807 264.253 187.85 261.773 196.117C260.26 201.137 258.51 206.083 256.523 210.957C248.21 229.843 236.25 246.047 220.643 259.567C201.09 276.513 178.493 287.083 152.853 291.277C150.473 291.67 146.306 291.933 140.353 292.067C137.833 292.3 137.26 291.923 138.633 290.937C138.953 290.71 139.34 290.583 139.793 290.557C145.546 290.27 151.216 289.427 156.803 288.027C173.376 283.867 188.546 276.943 202.313 267.257C207.773 263.417 212.99 259.267 217.963 254.807C231.03 243.093 241.483 229.253 249.323 213.287C249.352 213.224 249.369 213.157 249.372 213.089C249.375 213.021 249.365 212.953 249.341 212.892C249.317 212.83 249.281 212.775 249.235 212.731C249.189 212.687 249.133 212.655 249.073 212.637L248.603 212.487L251.313 207.527C251.666 208.52 252.15 208.493 252.763 207.447C258.51 197.62 262.623 187.147 265.103 176.027C265.29 175.2 264.97 174.783 264.143 174.777L264.643 172.527C264.963 173.227 265.303 173.33 265.663 172.837C266.99 171.037 267.016 169.14 265.743 167.147L266.353 162.287Z" fill="#2B6BA4"/>
<path d="M265.742 167.147C267.016 169.14 266.989 171.037 265.662 172.837C265.302 173.33 264.962 173.227 264.642 172.527C264.169 170.62 264.536 168.827 265.742 167.147Z" fill="#01C1C9"/>
<path d="M264.143 174.777C264.969 174.784 265.289 175.2 265.103 176.027C262.623 187.147 258.509 197.62 252.763 207.447C252.149 208.494 251.666 208.52 251.312 207.527C253.826 202.694 256.179 197.78 258.372 192.787C259.886 189.347 260.983 185.78 261.663 182.087C261.789 181.414 262.253 180.527 263.053 179.427C263.14 179.308 263.199 179.168 263.225 179.015C263.251 178.863 263.243 178.703 263.203 178.547C262.843 177.147 263.156 175.89 264.143 174.777Z" fill="#1FA6B1"/>
<path d="M259.103 209.567C258.843 210.414 259.093 210.847 259.853 210.867C266.606 211.034 273.733 211.27 281.233 211.577C281.335 211.581 281.436 211.61 281.525 211.661C281.615 211.711 281.691 211.783 281.748 211.869C281.804 211.954 281.84 212.053 281.851 212.155C281.862 212.257 281.849 212.361 281.813 212.457C280.653 215.55 279.296 218.37 277.743 220.917C277.723 220.95 277.393 221.597 276.753 222.857C276.299 223.743 275.659 224.48 274.833 225.067C274.572 225.25 274.37 225.507 274.253 225.807C273.866 226.754 273.169 227.68 272.163 228.587C270.776 229.847 269.093 232.004 267.113 235.057C264.879 238.51 262.326 241.7 259.453 244.627C258.386 245.714 258.049 246.94 258.443 248.307C258.485 248.455 258.489 248.609 258.456 248.753C258.423 248.897 258.352 249.026 258.253 249.127C257.093 250.327 256.023 251.607 255.043 252.967C253.936 254.5 251.896 255.837 248.923 256.977C245.289 257.357 244.149 259.417 245.503 263.157C214.949 288.47 179.649 299.857 139.603 297.317C140.549 297.09 141.233 296.563 141.653 295.737C141.726 295.596 141.829 295.477 141.951 295.389C142.073 295.302 142.211 295.249 142.353 295.237C144.766 295.01 149.016 294.44 155.103 293.527C164.696 292.08 173.703 289.607 182.123 286.107C187.816 283.74 193.796 280.8 200.063 277.287C208.116 272.767 215.586 267.43 222.473 261.277C227.539 256.757 232.213 252.01 236.493 247.037C242.999 239.49 248.973 230.757 254.413 220.837C256.586 216.884 257.856 213.53 258.223 210.777C257.783 209.937 258.076 209.534 259.103 209.567Z" fill="#01C1C9"/>
<path d="M258.223 210.777C257.856 213.53 256.586 216.884 254.413 220.837C248.973 230.757 242.999 239.49 236.493 247.037C232.213 252.01 227.539 256.757 222.473 261.277C215.586 267.43 208.116 272.767 200.063 277.287C193.796 280.8 187.816 283.74 182.123 286.107C173.703 289.607 164.696 292.08 155.103 293.527C149.016 294.44 144.766 295.01 142.353 295.237C142.212 295.249 142.073 295.302 141.951 295.389C141.829 295.477 141.726 295.596 141.653 295.737C141.233 296.564 140.549 297.09 139.603 297.317C124.316 296.557 109.553 293.377 95.3126 287.777C95.3059 286.677 95.7159 286.28 96.5426 286.587C103.543 289.18 110.116 290.937 116.263 291.857C120.689 292.517 122.909 292.847 122.923 292.847C124.849 293.047 127.096 293.087 129.663 292.967C133.236 292.8 136.799 292.5 140.353 292.067C146.306 291.934 150.473 291.67 152.853 291.277C178.493 287.084 201.089 276.514 220.643 259.567C236.249 246.047 248.209 229.844 256.523 210.957L258.223 210.777Z" fill="#09ECDD"/>
<path d="M248.603 212.487L249.073 212.637C249.133 212.655 249.188 212.688 249.235 212.732C249.281 212.776 249.317 212.83 249.341 212.892C249.365 212.954 249.375 213.021 249.372 213.089C249.369 213.157 249.352 213.225 249.323 213.287C241.483 229.254 231.029 243.093 217.963 254.807C212.989 259.267 207.773 263.417 202.313 267.257C188.546 276.944 173.376 283.867 156.803 288.027C151.216 289.427 145.546 290.27 139.793 290.557C139.339 290.583 138.953 290.71 138.633 290.937C137.259 291.923 137.833 292.3 140.353 292.067C136.799 292.5 133.236 292.8 129.663 292.967C127.096 293.087 124.849 293.047 122.923 292.847C122.909 292.847 120.689 292.517 116.263 291.857C110.116 290.937 103.543 289.18 96.5426 286.587C95.7159 286.28 95.3059 286.677 95.3126 287.777C85.8393 284.65 76.9726 280.29 68.7126 274.697C67.1659 273.657 65.7593 272.227 64.4926 270.407C63.7193 269.307 63.9959 268.857 65.3226 269.057C66.7626 269.283 68.2093 269.73 69.6626 270.397C110.583 289.257 150.543 287.863 189.543 266.217C197.043 262.05 204.776 256.903 212.743 250.777C213.703 250.043 215.019 248.787 216.693 247.007C217.959 245.667 219.346 244.463 220.853 243.397C220.873 243.377 221.453 243.08 222.593 242.507C223.146 242.227 223.713 241.797 224.293 241.217C226.919 238.59 229.543 235.963 232.163 233.337C233.156 232.35 233.713 231.413 233.833 230.527C233.878 230.172 234.013 229.873 234.213 229.687C239.639 224.493 244.436 218.76 248.603 212.487Z" fill="#01C1C9"/>
<path d="M248.922 256.977L252.852 257.317L245.502 263.157C244.149 259.417 245.289 257.357 248.922 256.977Z" fill="#0C7DA1"/>
</svg>
